<svg width="12" height="22" viewBox="0 0 12 22" fill="none" xmlns="http://www.w3.org/2000/svg">
<path d="M5.25673 17.8862C5.50282 18.269 6.07704 18.269 6.32314 17.8862C10.3153 12.144 11.0536 11.5425 11.0536 9.40967C11.0536 6.51123 8.70204 4.15967 5.8036 4.15967C2.87782 4.15967 0.553604 6.51123 0.553604 9.40967C0.553604 11.5425 1.26454 12.144 5.25673 17.8862ZM5.8036 11.5972C4.57314 11.5972 3.6161 10.6401 3.6161 9.40967C3.6161 8.20654 4.57314 7.22217 5.8036 7.22217C7.00673 7.22217 7.9911 8.20654 7.9911 9.40967C7.9911 10.6401 7.00673 11.5972 5.8036 11.5972Z" fill="#E8C300"/>
</svg>
