<svg width="15" height="22" viewBox="0 0 15 22" fill="none" xmlns="http://www.w3.org/2000/svg">
<path d="M14.2802 9.38232C13.6513 9.87451 12.8583 10.4761 10.0692 12.4995C9.52235 12.9097 8.51064 13.812 7.5536 13.812C6.56923 13.812 5.58485 12.9097 5.01064 12.4995C2.22157 10.4761 1.4286 9.87451 0.799698 9.38232C0.690323 9.30029 0.553604 9.38232 0.553604 9.51904V15.0972C0.553604 15.8354 1.12782 16.4097 1.8661 16.4097H13.2411C13.952 16.4097 14.5536 15.8354 14.5536 15.0972V9.51904C14.5536 9.38232 14.3895 9.30029 14.2802 9.38232ZM7.5536 12.9097C8.18251 12.937 9.08485 12.1167 9.5497 11.7886C13.1864 9.16357 13.4599 8.91748 14.2802 8.26123C14.4442 8.15186 14.5536 7.96045 14.5536 7.7417V7.22217C14.5536 6.51123 13.952 5.90967 13.2411 5.90967H1.8661C1.12782 5.90967 0.553604 6.51123 0.553604 7.22217V7.7417C0.553604 7.96045 0.635635 8.15186 0.799698 8.26123C1.62001 8.91748 1.89345 9.16357 5.53017 11.7886C5.99501 12.1167 6.89735 12.937 7.5536 12.9097Z" fill="#E8C300"/>
</svg>
