<svg width="15" height="22" viewBox="0 0 15 22" fill="none" xmlns="http://www.w3.org/2000/svg">
<path d="M14.0341 4.84326L11.1903 4.18701C10.8895 4.10498 10.5614 4.26904 10.4247 4.56982L9.1122 7.63232C9.00282 7.90576 9.08485 8.20654 9.3036 8.39795L10.9716 9.76514C9.9872 11.8433 8.26454 13.5933 6.13173 14.605L4.76454 12.937C4.57314 12.7183 4.27235 12.6362 3.99892 12.7456L0.936417 14.0581C0.635635 14.1948 0.498917 14.5229 0.553604 14.8237L1.20985 17.6675C1.29189 17.9683 1.53798 18.1597 1.8661 18.1597C8.8661 18.1597 14.5536 12.4995 14.5536 5.47217C14.5536 5.17139 14.3349 4.92529 14.0341 4.84326Z" fill="#E8C300"/>
</svg>
