<svg width="40" height="41" viewBox="0 0 40 41" fill="none" xmlns="http://www.w3.org/2000/svg">
<path d="M20 16.4917C19.1927 16.4917 18.4375 16.7 17.7344 17.1167C17.0573 17.5073 16.5104 18.0542 16.0938 18.7573C15.7031 19.4344 15.5078 20.1766 15.5078 20.9839C15.5078 21.7912 15.7031 22.5464 16.0938 23.2495C16.5104 23.9266 17.0573 24.4735 17.7344 24.8901C18.4375 25.2808 19.1927 25.4761 20 25.4761C20.8073 25.4761 21.5495 25.2808 22.2266 24.8901C22.9297 24.4735 23.4766 23.9266 23.8672 23.2495C24.2839 22.5464 24.4922 21.7912 24.4922 20.9839C24.4922 20.1766 24.2839 19.4344 23.8672 18.7573C23.4766 18.0542 22.9297 17.5073 22.2266 17.1167C21.5495 16.7 20.8073 16.4917 20 16.4917ZM20 23.9136C19.1927 23.9136 18.5026 23.6271 17.9297 23.0542C17.3568 22.4813 17.0703 21.7912 17.0703 20.9839C17.0703 20.1766 17.3568 19.4865 17.9297 18.9136C18.5026 18.3407 19.1927 18.0542 20 18.0542C20.8073 18.0542 21.4974 18.3407 22.0703 18.9136C22.6432 19.4865 22.9297 20.1766 22.9297 20.9839C22.9297 21.7912 22.6432 22.4813 22.0703 23.0542C21.4974 23.6271 20.8073 23.9136 20 23.9136ZM25.7422 16.2964C25.7161 16.5828 25.599 16.8302 25.3906 17.0386C25.2083 17.2469 24.974 17.3511 24.6875 17.3511C24.401 17.3511 24.1536 17.2469 23.9453 17.0386C23.737 16.8302 23.6328 16.5828 23.6328 16.2964C23.6328 16.0099 23.737 15.7625 23.9453 15.5542C24.1536 15.3459 24.401 15.2417 24.6875 15.2417C24.974 15.2417 25.2214 15.3459 25.4297 15.5542C25.638 15.7625 25.7422 16.0099 25.7422 16.2964ZM28.7109 17.3511C28.6589 16.5959 28.5417 15.9448 28.3594 15.3979C28.125 14.7469 27.7604 14.187 27.2656 13.7183C26.7969 13.2235 26.237 12.8589 25.5859 12.6245C25.0391 12.4422 24.388 12.3381 23.6328 12.312C22.9036 12.2599 21.6927 12.2339 20 12.2339C18.3073 12.2339 17.0833 12.2599 16.3281 12.312C15.599 12.3381 14.9609 12.4422 14.4141 12.6245C13.763 12.8589 13.1901 13.2235 12.6953 13.7183C12.2266 14.187 11.875 14.7469 11.6406 15.3979C11.4583 15.9448 11.3411 16.5959 11.2891 17.3511C11.263 18.0802 11.25 19.2912 11.25 20.9839C11.25 22.6766 11.263 23.9006 11.2891 24.6558C11.3411 25.3849 11.4583 26.0229 11.6406 26.5698C11.875 27.2209 12.2266 27.7938 12.6953 28.2886C13.1901 28.7573 13.763 29.0959 14.4141 29.3042C14.9609 29.5125 15.599 29.6297 16.3281 29.6558C17.0833 29.7078 18.3073 29.7339 20 29.7339C21.6927 29.7339 22.9036 29.7078 23.6328 29.6558C24.388 29.6297 25.0391 29.5256 25.5859 29.3433C26.237 29.1089 26.7969 28.7573 27.2656 28.2886C27.7604 27.7938 28.125 27.2209 28.3594 26.5698C28.5417 26.0229 28.6458 25.3849 28.6719 24.6558C28.724 23.9006 28.75 22.6766 28.75 20.9839C28.75 19.2912 28.737 18.0802 28.7109 17.3511ZM26.8359 26.1401C26.5234 26.9214 25.9635 27.4813 25.1562 27.8198C24.7396 27.9761 24.0365 28.0802 23.0469 28.1323C22.5 28.1584 21.6927 28.1714 20.625 28.1714H19.375C18.3333 28.1714 17.526 28.1584 16.9531 28.1323C15.9896 28.0802 15.2865 27.9761 14.8438 27.8198C14.0625 27.5073 13.5026 26.9474 13.1641 26.1401C13.0078 25.6974 12.9036 24.9943 12.8516 24.0308C12.8255 23.4578 12.8125 22.6506 12.8125 21.6089V20.3589C12.8125 19.3172 12.8255 18.5099 12.8516 17.937C12.9036 16.9474 13.0078 16.2443 13.1641 15.8276C13.4766 15.0203 14.0365 14.4604 14.8438 14.1479C15.2865 13.9917 15.9896 13.8875 16.9531 13.8354C17.526 13.8094 18.3333 13.7964 19.375 13.7964H20.625C21.6667 13.7964 22.474 13.8094 23.0469 13.8354C24.0365 13.8875 24.7396 13.9917 25.1562 14.1479C25.9635 14.4604 26.5234 15.0203 26.8359 15.8276C26.9922 16.2443 27.0964 16.9474 27.1484 17.937C27.1745 18.4839 27.1875 19.2912 27.1875 20.3589V21.6089C27.1875 22.6506 27.1745 23.4578 27.1484 24.0308C27.0964 24.9943 26.9922 25.6974 26.8359 26.1401Z" fill="white"/>
</svg>
