<svg width="40" height="41" viewBox="0 0 40 41" fill="none" xmlns="http://www.w3.org/2000/svg">
<path d="M27.9297 16.9214C27.9557 17.0256 27.9688 17.1948 27.9688 17.4292C27.9688 19.3042 27.513 21.1141 26.6016 22.8589C25.6641 24.7078 24.349 26.1792 22.6562 27.2729C20.8073 28.4969 18.6849 29.1089 16.2891 29.1089C13.9974 29.1089 11.901 28.4969 10 27.2729C10.2865 27.299 10.612 27.312 10.9766 27.312C12.8776 27.312 14.5833 26.7261 16.0938 25.5542C15.1823 25.5542 14.375 25.2938 13.6719 24.7729C12.9948 24.2261 12.526 23.549 12.2656 22.7417C12.526 22.7677 12.7734 22.7808 13.0078 22.7808C13.3724 22.7808 13.737 22.7417 14.1016 22.6636C13.1641 22.4552 12.3828 21.9735 11.7578 21.2183C11.1328 20.4631 10.8203 19.6037 10.8203 18.6401V18.562C11.3932 18.9006 12.0052 19.0828 12.6562 19.1089C12.1094 18.7183 11.6667 18.2235 11.3281 17.6245C10.9896 17.0256 10.8203 16.3745 10.8203 15.6714C10.8203 14.9422 11.0156 14.2521 11.4062 13.6011C12.4219 14.8771 13.6589 15.8927 15.1172 16.6479C16.6016 17.4032 18.1771 17.8198 19.8438 17.8979C19.7917 17.5854 19.7656 17.2729 19.7656 16.9604C19.7656 16.2313 19.9479 15.5542 20.3125 14.9292C20.6771 14.2782 21.1719 13.7703 21.7969 13.4058C22.4219 13.0412 23.099 12.8589 23.8281 12.8589C24.4271 12.8589 24.974 12.9761 25.4688 13.2104C25.9896 13.4448 26.4453 13.7573 26.8359 14.1479C27.7734 13.9657 28.6458 13.6401 29.4531 13.1714C29.1406 14.1349 28.5417 14.8901 27.6562 15.437C28.4375 15.3328 29.2188 15.1115 30 14.7729C29.4271 15.6063 28.737 16.3224 27.9297 16.9214Z" fill="white"/>
</svg>
